<?xml version="1.0" encoding="UTF-8"?>
<svg width="800" height="500" version="1.1" viewBox="0 0 800 500" xmlns="http://www.w3.org/2000/svg">
 <g fill="none" stroke="#fc0" stroke-dasharray="" stroke-linecap="round" stroke-miterlimit="10" stroke-width="5">
  <path d="m69 522" paint-order="fill stroke markers"/>
  <path d="m69 522" paint-order="fill stroke markers"/>
  <path d="m69 522" paint-order="fill stroke markers"/>
  <path d="m69 522" paint-order="fill stroke markers"/>
  <path d="m69 522" paint-order="fill stroke markers"/>
  <path d="m69 522" paint-order="fill stroke markers"/>
  <path d="m69 522" paint-order="fill stroke markers"/>
  <path d="m69 522" paint-order="fill stroke markers"/>
  <path d="m69 522" paint-order="fill stroke markers"/>
  <path d="m69 522" paint-order="fill stroke markers"/>
  <path d="m69 522" paint-order="fill stroke markers"/>
  <path d="m69 522" paint-order="fill stroke markers"/>
  <path d="m69 522" paint-order="fill stroke markers"/>
  <path d="m69 522" paint-order="fill stroke markers"/>
  <path d="m69 522" paint-order="fill stroke markers"/>
  <path d="m69 522" paint-order="fill stroke markers"/>
  <path d="m69 522" paint-order="fill stroke markers"/>
  <path d="m69 522" paint-order="fill stroke markers"/>
  <path d="m69 522v-1" paint-order="fill stroke markers"/>
  <path d="m69 521v-1" paint-order="fill stroke markers"/>
  <path d="m69 520" paint-order="fill stroke markers"/>
  <path d="m69 520" paint-order="fill stroke markers"/>
  <path d="m69 520" paint-order="fill stroke markers"/>
  <path d="m69 520" paint-order="fill stroke markers"/>
  <path d="m69 520" paint-order="fill stroke markers"/>
  <path d="m69 520" paint-order="fill stroke markers"/>
  <path d="m69 520" paint-order="fill stroke markers"/>
  <path d="m69 520" paint-order="fill stroke markers"/>
  <path d="m69 520" paint-order="fill stroke markers"/>
  <path d="m69 520" paint-order="fill stroke markers"/>
  <path d="m69 520" paint-order="fill stroke markers"/>
  <path d="m69 520" paint-order="fill stroke markers"/>
  <path d="m69 520" paint-order="fill stroke markers"/>
  <path d="m69 520" paint-order="fill stroke markers"/>
  <path d="m69 520" paint-order="fill stroke markers"/>
  <path d="m69 520h1" paint-order="fill stroke markers"/>
  <path d="m70 520h1" paint-order="fill stroke markers"/>
  <path d="m71 520" paint-order="fill stroke markers"/>
  <path d="m71 520" paint-order="fill stroke markers"/>
  <path d="m71 520h2" paint-order="fill stroke markers"/>
  <path d="m73 520 3-1" paint-order="fill stroke markers"/>
  <path d="m76 519 8-5" paint-order="fill stroke markers"/>
  <path d="m84 514 10-7" paint-order="fill stroke markers"/>
  <path d="m94 507 12-10" paint-order="fill stroke markers"/>
  <path d="m106 497 6-4" paint-order="fill stroke markers"/>
  <path d="m112 493 11-3" paint-order="fill stroke markers"/>
  <path d="m123 490 26-7" paint-order="fill stroke markers"/>
  <path d="m149 483 11-2" paint-order="fill stroke markers"/>
  <path d="m160 481" paint-order="fill stroke markers"/>
  <path d="m160 481h10" paint-order="fill stroke markers"/>
  <path d="m170 481 28 1" paint-order="fill stroke markers"/>
  <path d="m198 482 23-6" paint-order="fill stroke markers"/>
  <path d="m221 476 24-34" paint-order="fill stroke markers"/>
  <path d="m245 442 11-49" paint-order="fill stroke markers"/>
  <path d="m256 393-2-33" paint-order="fill stroke markers"/>
  <path d="m254 360-33-23" paint-order="fill stroke markers"/>
  <path d="m221 337-28-2" paint-order="fill stroke markers"/>
  <path d="m193 335-15 21" paint-order="fill stroke markers"/>
  <path d="m178 356-16 27" paint-order="fill stroke markers"/>
  <path d="m162 383-7 34" paint-order="fill stroke markers"/>
  <path d="m155 417 5 22" paint-order="fill stroke markers"/>
  <path d="m160 439 11 16" paint-order="fill stroke markers"/>
  <path d="m171 455 9 10" paint-order="fill stroke markers"/>
  <path d="m180 465 4 3" paint-order="fill stroke markers"/>
  <path d="m184 468 6 2" paint-order="fill stroke markers"/>
  <path d="m190 470h3" paint-order="fill stroke markers"/>
  <path d="m193 470h-1" paint-order="fill stroke markers"/>
  <path d="m192 470-3-1" paint-order="fill stroke markers"/>
  <path d="m189 469" paint-order="fill stroke markers"/>
  <path d="m189 469" paint-order="fill stroke markers"/>
  <path d="m189 469" paint-order="fill stroke markers"/>
  <path d="m189 469" paint-order="fill stroke markers"/>
  <path d="m189 469" paint-order="fill stroke markers"/>
  <path d="m189 469" paint-order="fill stroke markers"/>
  <path d="m189 469" paint-order="fill stroke markers"/>
  <path d="m189 469" paint-order="fill stroke markers"/>
  <path d="m189 469" paint-order="fill stroke markers"/>
  <path d="m189 469 1-1" paint-order="fill stroke markers"/>
  <path d="m190 468 9-5" paint-order="fill stroke markers"/>
  <path d="m199 463 8-6" paint-order="fill stroke markers"/>
  <path d="m207 457 6-6" paint-order="fill stroke markers"/>
  <path d="m213 451 10-9" paint-order="fill stroke markers"/>
  <path d="m223 442 17-16" paint-order="fill stroke markers"/>
  <path d="m240 426 6-6" paint-order="fill stroke markers"/>
  <path d="m246 420" paint-order="fill stroke markers"/>
  <path d="m246 420" paint-order="fill stroke markers"/>
  <path d="m246 420" paint-order="fill stroke markers"/>
  <path d="m246 420v-3" paint-order="fill stroke markers"/>
  <path d="m246 417 9-25" paint-order="fill stroke markers"/>
  <path d="m255 392 15-20" paint-order="fill stroke markers"/>
  <path d="m270 372 11-15" paint-order="fill stroke markers"/>
  <path d="m281 357" paint-order="fill stroke markers"/>
  <path d="m281 357" paint-order="fill stroke markers"/>
  <path d="m281 357" paint-order="fill stroke markers"/>
  <path d="m281 357 32-19" paint-order="fill stroke markers"/>
  <path d="m313 338 27-15" paint-order="fill stroke markers"/>
  <path d="m340 323 39-8" paint-order="fill stroke markers"/>
  <path d="m379 315 42-1" paint-order="fill stroke markers"/>
  <path d="m421 314 43 6" paint-order="fill stroke markers"/>
  <path d="m464 320 3 4" paint-order="fill stroke markers"/>
  <path d="m467 324" paint-order="fill stroke markers"/>
  <path d="m467 324h15" paint-order="fill stroke markers"/>
  <path d="m482 324 52 3" paint-order="fill stroke markers"/>
  <path d="m534 327 38 4" paint-order="fill stroke markers"/>
  <path d="m572 331 38 7" paint-order="fill stroke markers"/>
  <path d="m610 338 30 10" paint-order="fill stroke markers"/>
  <path d="m640 348 22 17" paint-order="fill stroke markers"/>
  <path d="m662 365 12 22" paint-order="fill stroke markers"/>
  <path d="m674 387 3 9" paint-order="fill stroke markers"/>
  <path d="m677 396" paint-order="fill stroke markers"/>
  <path d="m677 396" paint-order="fill stroke markers"/>
  <path d="m677 396 10 16" paint-order="fill stroke markers"/>
  <path d="m687 412 5 11" paint-order="fill stroke markers"/>
  <path d="m692 423v7" paint-order="fill stroke markers"/>
  <path d="m692 430v4" paint-order="fill stroke markers"/>
  <path d="m692 434-1 4" paint-order="fill stroke markers"/>
  <path d="m691 438-5 6" paint-order="fill stroke markers"/>
  <path d="m686 444-7 5" paint-order="fill stroke markers"/>
  <path d="m679 449-3 4" paint-order="fill stroke markers"/>
  <path d="m676 453-2 2" paint-order="fill stroke markers"/>
  <path d="m674 455-3 5" paint-order="fill stroke markers"/>
  <path d="m671 460-2 2" paint-order="fill stroke markers"/>
  <path d="m669 462-1 1" paint-order="fill stroke markers"/>
  <path d="m668 463-5 2" paint-order="fill stroke markers"/>
  <path d="m663 465-25 8" paint-order="fill stroke markers"/>
  <path d="m638 473-34 7" paint-order="fill stroke markers"/>
  <path d="m604 480-20 4" paint-order="fill stroke markers"/>
  <path d="m584 484-12 2" paint-order="fill stroke markers"/>
  <path d="m572 486" paint-order="fill stroke markers"/>
  <path d="m572 486" paint-order="fill stroke markers"/>
  <path d="m572 486-46 6" paint-order="fill stroke markers"/>
  <path d="m526 492-86 9" paint-order="fill stroke markers"/>
  <path d="m440 501-17 1" paint-order="fill stroke markers"/>
  <path d="m423 502h-9" paint-order="fill stroke markers"/>
  <path d="m414 502-10-1" paint-order="fill stroke markers"/>
  <path d="m404 501h-1" paint-order="fill stroke markers"/>
  <path d="m403 501" paint-order="fill stroke markers"/>
  <path d="m403 501" paint-order="fill stroke markers"/>
  <path d="m403 501" paint-order="fill stroke markers"/>
  <path d="m403 501-6-1" paint-order="fill stroke markers"/>
  <path d="m397 500-11-4" paint-order="fill stroke markers"/>
  <path d="m386 496-5-1" paint-order="fill stroke markers"/>
  <path d="m381 495" paint-order="fill stroke markers"/>
  <path d="m381 495" paint-order="fill stroke markers"/>
  <path d="m381 495" paint-order="fill stroke markers"/>
  <path d="m381 495" paint-order="fill stroke markers"/>
  <path d="m381 495" paint-order="fill stroke markers"/>
  <path d="m381 495" paint-order="fill stroke markers"/>
  <path d="m381 495" paint-order="fill stroke markers"/>
  <path d="m381 495 2-4" paint-order="fill stroke markers"/>
  <path d="m383 491 46-20" paint-order="fill stroke markers"/>
  <path d="m429 471 72-6" paint-order="fill stroke markers"/>
  <path d="m501 465 39 8" paint-order="fill stroke markers"/>
  <path d="m540 473 24 9" paint-order="fill stroke markers"/>
  <path d="m564 482 7 3" paint-order="fill stroke markers"/>
  <path d="m571 485h-3" paint-order="fill stroke markers"/>
  <path d="m568 485-94-12" paint-order="fill stroke markers"/>
  <path d="m474 473 18-32" paint-order="fill stroke markers"/>
  <path d="m492 441 74 22" paint-order="fill stroke markers"/>
  <path d="m566 463-70 24" paint-order="fill stroke markers"/>
  <path d="m496 487-136-40" paint-order="fill stroke markers"/>
  <path d="m360 447-45-5" paint-order="fill stroke markers"/>
  <path d="m315 442h-8" paint-order="fill stroke markers"/>
  <path d="m307 442h-1" paint-order="fill stroke markers"/>
  <path d="m306 442" paint-order="fill stroke markers"/>
  <path d="m306 442" paint-order="fill stroke markers"/>
  <path d="m306 442" paint-order="fill stroke markers"/>
  <path d="m306 442-2 1" paint-order="fill stroke markers"/>
  <path d="m304 443v3" paint-order="fill stroke markers"/>
  <path d="m304 446 11 6" paint-order="fill stroke markers"/>
  <path d="m315 452 13 10" paint-order="fill stroke markers"/>
  <path d="m328 462 2 1" paint-order="fill stroke markers"/>
  <path d="m330 463-4-1" paint-order="fill stroke markers"/>
  <path d="m326 462-2-13" paint-order="fill stroke markers"/>
  <path d="m324 449 115-55" paint-order="fill stroke markers"/>
  <path d="m439 394 74 37" paint-order="fill stroke markers"/>
  <path d="m513 431 1 11" paint-order="fill stroke markers"/>
  <path d="m514 442-63 28" paint-order="fill stroke markers"/>
  <path d="m451 470-73 10" paint-order="fill stroke markers"/>
  <path d="m378 480-10-3" paint-order="fill stroke markers"/>
  <path d="m368 477" paint-order="fill stroke markers"/>
  <path d="m368 477" paint-order="fill stroke markers"/>
  <path d="m368 477" paint-order="fill stroke markers"/>
  <path d="m368 477-5-7" paint-order="fill stroke markers"/>
  <path d="m363 470-8-7" paint-order="fill stroke markers"/>
  <path d="m355 463-2-1" paint-order="fill stroke markers"/>
  <path d="m353 462h-15" paint-order="fill stroke markers"/>
  <path d="m338 462-98-13" paint-order="fill stroke markers"/>
  <path d="m240 449-33-13" paint-order="fill stroke markers"/>
  <path d="m207 436-8-5" paint-order="fill stroke markers"/>
  <path d="m199 431-8-5" paint-order="fill stroke markers"/>
  <path d="m191 426-14-21" paint-order="fill stroke markers"/>
  <path d="m177 405 1-37" paint-order="fill stroke markers"/>
  <path d="m178 368 14-5" paint-order="fill stroke markers"/>
  <path d="m192 363 18-1" paint-order="fill stroke markers"/>
  <path d="m210 362 25 12" paint-order="fill stroke markers"/>
  <path d="m235 374 23 31" paint-order="fill stroke markers"/>
  <path d="m258 405 2 18" paint-order="fill stroke markers"/>
  <path d="m260 423-10 10" paint-order="fill stroke markers"/>
  <path d="m250 433-20 4" paint-order="fill stroke markers"/>
  <path d="m230 437-26-12" paint-order="fill stroke markers"/>
  <path d="m204 425-7-14" paint-order="fill stroke markers"/>
  <path d="m197 411 2-33" paint-order="fill stroke markers"/>
  <path d="m199 378 28-33" paint-order="fill stroke markers"/>
  <path d="m227 345 168-13" paint-order="fill stroke markers"/>
  <path d="m395 332 65 20" paint-order="fill stroke markers"/>
  <path d="m460 352 8 5" paint-order="fill stroke markers"/>
  <path d="m468 357" paint-order="fill stroke markers"/>
  <path d="m468 357 34-2" paint-order="fill stroke markers"/>
  <path d="m502 355 163 35" paint-order="fill stroke markers"/>
  <path d="m665 390 8 10" paint-order="fill stroke markers"/>
  <path d="m673 400-134 52" paint-order="fill stroke markers"/>
  <path d="m539 452-36 3" paint-order="fill stroke markers"/>
  <path d="m503 455" paint-order="fill stroke markers"/>
  <path d="m503 455" paint-order="fill stroke markers"/>
  <path d="m503 455" paint-order="fill stroke markers"/>
  <path d="m503 455-79-17" paint-order="fill stroke markers"/>
  <path d="m424 438-224-126" paint-order="fill stroke markers"/>
  <path d="m200 312-12-8" paint-order="fill stroke markers"/>
  <path d="m188 304-21 7" paint-order="fill stroke markers"/>
  <path d="m167 311-25 8" paint-order="fill stroke markers"/>
  <path d="m142 319-2 2" paint-order="fill stroke markers"/>
  <path d="m140 321" paint-order="fill stroke markers"/>
  <path d="m140 321-10-9" paint-order="fill stroke markers"/>
  <path d="m130 312-83-121" paint-order="fill stroke markers"/>
  <path d="m47 191-1-3" paint-order="fill stroke markers"/>
  <path d="m46 188" paint-order="fill stroke markers"/>
  <path d="m46 188" paint-order="fill stroke markers"/>
  <path d="m46 188v-2" paint-order="fill stroke markers"/>
  <path d="m46 186v-2" paint-order="fill stroke markers"/>
  <path d="m46 184-2-7" paint-order="fill stroke markers"/>
  <path d="m44 177-1-2" paint-order="fill stroke markers"/>
  <path d="m43 175 10 3" paint-order="fill stroke markers"/>
  <path d="m53 178 72 14" paint-order="fill stroke markers"/>
  <path d="m125 192 192 31" paint-order="fill stroke markers"/>
  <path d="m317 223 14 1" paint-order="fill stroke markers"/>
  <path d="m331 224" paint-order="fill stroke markers"/>
  <path d="m331 224 105 9" paint-order="fill stroke markers"/>
  <path d="m436 233 23 3" paint-order="fill stroke markers"/>
  <path d="m459 236-2-4" paint-order="fill stroke markers"/>
  <path d="m457 232 214-62" paint-order="fill stroke markers"/>
  <path d="m671 170 58-3" paint-order="fill stroke markers"/>
  <path d="m729 167" paint-order="fill stroke markers"/>
  <path d="m729 167 24-40" paint-order="fill stroke markers"/>
  <path d="m753 127 8-55" paint-order="fill stroke markers"/>
  <path d="m761 72-90-78" paint-order="fill stroke markers"/>
  <path d="m671-6" paint-order="fill stroke markers"/>
  <path d="m671-6-353 39" paint-order="fill stroke markers"/>
  <path d="m318 33-73 42" paint-order="fill stroke markers"/>
  <path d="m245 75-48 9" paint-order="fill stroke markers"/>
  <path d="m197 84-8 1" paint-order="fill stroke markers"/>
  <path d="m189 85" paint-order="fill stroke markers"/>
  <path d="m189 85h-5" paint-order="fill stroke markers"/>
  <path d="m184 85-64 40" paint-order="fill stroke markers"/>
  <path d="m120 125-17 10" paint-order="fill stroke markers"/>
  <path d="m103 135" paint-order="fill stroke markers"/>
  <path d="m103 135" paint-order="fill stroke markers"/>
  <path d="m103 135" paint-order="fill stroke markers"/>
  <path d="m103 135 26 115" paint-order="fill stroke markers"/>
  <path d="m129 250 18 41" paint-order="fill stroke markers"/>
  <path d="m147 291h-3" paint-order="fill stroke markers"/>
  <path d="m144 291-2-2" paint-order="fill stroke markers"/>
  <path d="m142 289" paint-order="fill stroke markers"/>
  <path d="m142 289" paint-order="fill stroke markers"/>
  <path d="m142 289-39-80" paint-order="fill stroke markers"/>
  <path d="m103 209-28-113" paint-order="fill stroke markers"/>
  <path d="m75 96-1-4" paint-order="fill stroke markers"/>
  <path d="m74 92-5-18" paint-order="fill stroke markers"/>
  <path d="m69 74-1-17" paint-order="fill stroke markers"/>
  <path d="m68 57 83-63" paint-order="fill stroke markers"/>
  <path d="m151-6 399 22" paint-order="fill stroke markers"/>
  <path d="m550 16 150 89" paint-order="fill stroke markers"/>
  <path d="m700 105-56 199" paint-order="fill stroke markers"/>
  <path d="m644 304-68 16" paint-order="fill stroke markers"/>
  <path d="m576 320-122-20" paint-order="fill stroke markers"/>
  <path d="m454 300-99-44" paint-order="fill stroke markers"/>
  <path d="m355 256-15-4" paint-order="fill stroke markers"/>
  <path d="m340 252" paint-order="fill stroke markers"/>
  <path d="m340 252" paint-order="fill stroke markers"/>
  <path d="m340 252" paint-order="fill stroke markers"/>
  <path d="m340 252" paint-order="fill stroke markers"/>
  <path d="m340 252h1" paint-order="fill stroke markers"/>
  <path d="m341 252" paint-order="fill stroke markers"/>
  <path d="m341 252h1" paint-order="fill stroke markers"/>
  <path d="m342 252 7 2" paint-order="fill stroke markers"/>
  <path d="m349 254 88 26" paint-order="fill stroke markers"/>
  <path d="m437 280 157 40" paint-order="fill stroke markers"/>
  <path d="m594 320 7 3" paint-order="fill stroke markers"/>
  <path d="m601 323" paint-order="fill stroke markers"/>
  <path d="m601 323 30 2" paint-order="fill stroke markers"/>
  <path d="m631 325 56 18" paint-order="fill stroke markers"/>
  <path d="m687 343h1" paint-order="fill stroke markers"/>
  <path d="m688 343" paint-order="fill stroke markers"/>
  <path d="m688 343" paint-order="fill stroke markers"/>
  <path d="m688 343" paint-order="fill stroke markers"/>
  <path d="m688 343" paint-order="fill stroke markers"/>
  <path d="m688 343" paint-order="fill stroke markers"/>
  <path d="m688 343 1 2" paint-order="fill stroke markers"/>
  <path d="m689 345 5 4" paint-order="fill stroke markers"/>
  <path d="m694 349 8 11" paint-order="fill stroke markers"/>
  <path d="m702 360 4 19" paint-order="fill stroke markers"/>
  <path d="m706 379-17 9" paint-order="fill stroke markers"/>
  <path d="m689 388-71 26" paint-order="fill stroke markers"/>
  <path d="m618 414-34 9" paint-order="fill stroke markers"/>
  <path d="m584 423" paint-order="fill stroke markers"/>
  <path d="m584 423" paint-order="fill stroke markers"/>
  <path d="m584 423-125-9" paint-order="fill stroke markers"/>
  <path d="m459 414-257-64" paint-order="fill stroke markers"/>
  <path d="m202 350-8-1" paint-order="fill stroke markers"/>
  <path d="m194 349-3 2" paint-order="fill stroke markers"/>
  <path d="m191 351-22 7" paint-order="fill stroke markers"/>
  <path d="m169 358-9 3" paint-order="fill stroke markers"/>
  <path d="m160 361" paint-order="fill stroke markers"/>
  <path d="m160 361" paint-order="fill stroke markers"/>
  <path d="m160 361" paint-order="fill stroke markers"/>
  <path d="m160 361h-11" paint-order="fill stroke markers"/>
  <path d="m149 361-48-1" paint-order="fill stroke markers"/>
  <path d="m101 360-3 1" paint-order="fill stroke markers"/>
  <path d="m98 361-1 2" paint-order="fill stroke markers"/>
  <path d="m97 363 1 18" paint-order="fill stroke markers"/>
  <path d="m98 381 23 35" paint-order="fill stroke markers"/>
  <path d="m121 416 40 18" paint-order="fill stroke markers"/>
  <path d="m161 434 52 4" paint-order="fill stroke markers"/>
  <path d="m213 438 43-4" paint-order="fill stroke markers"/>
  <path d="m256 434 13-4" paint-order="fill stroke markers"/>
  <path d="m269 430" paint-order="fill stroke markers"/>
  <path d="m269 430h14" paint-order="fill stroke markers"/>
  <path d="m283 430 84 2" paint-order="fill stroke markers"/>
  <path d="m367 432 27 1" paint-order="fill stroke markers"/>
  <path d="m394 433 2-2" paint-order="fill stroke markers"/>
  <path d="m396 431 3-3" paint-order="fill stroke markers"/>
  <path d="m399 428 106-48" paint-order="fill stroke markers"/>
  <path d="m505 380 41 3" paint-order="fill stroke markers"/>
  <path d="m546 383" paint-order="fill stroke markers"/>
  <path d="m546 383h3" paint-order="fill stroke markers"/>
  <path d="m549 383 110 22" paint-order="fill stroke markers"/>
  <path d="m659 405 24 12" paint-order="fill stroke markers"/>
  <path d="m683 417-347 32" paint-order="fill stroke markers"/>
  <path d="m336 449-76-8" paint-order="fill stroke markers"/>
  <path d="m260 441" paint-order="fill stroke markers"/>
  <path d="m260 441" paint-order="fill stroke markers"/>
  <path d="m260 441" paint-order="fill stroke markers"/>
  <path d="m260 441" paint-order="fill stroke markers"/>
  <path d="m260 441" paint-order="fill stroke markers"/>
  <path d="m260 441 8 6" paint-order="fill stroke markers"/>
  <path d="m268 447 19 11" paint-order="fill stroke markers"/>
  <path d="m287 458" paint-order="fill stroke markers"/>
  <path d="m287 458-14-1" paint-order="fill stroke markers"/>
  <path d="m273 457h-31" paint-order="fill stroke markers"/>
  <path d="m242 457-9-2" paint-order="fill stroke markers"/>
  <path d="m233 455 16 1" paint-order="fill stroke markers"/>
  <path d="m249 456 46 26" paint-order="fill stroke markers"/>
  <path d="m295 482-12-6" paint-order="fill stroke markers"/>
  <path d="m283 476-42-34" paint-order="fill stroke markers"/>
  <path d="m241 442 54 6" paint-order="fill stroke markers"/>
  <path d="m295 448 5 3" paint-order="fill stroke markers"/>
  <path d="m300 451h-8" paint-order="fill stroke markers"/>
  <path d="m292 451-1-1" paint-order="fill stroke markers"/>
  <path d="m291 450" paint-order="fill stroke markers"/>
  <path d="m291 450 1 1" paint-order="fill stroke markers"/>
  <path d="m292 451h1" paint-order="fill stroke markers"/>
  <path d="m293 451" paint-order="fill stroke markers"/>
  <path d="m293 451" paint-order="fill stroke markers"/>
  <path d="m293 451" paint-order="fill stroke markers"/>
  <path d="m293 451v3" paint-order="fill stroke markers"/>
  <path d="m293 454-10 59" paint-order="fill stroke markers"/>
  <path d="m283 513-23 29" paint-order="fill stroke markers"/>
  <path d="m260 542-16 17" paint-order="fill stroke markers"/>
  <path d="m244 559-9 8" paint-order="fill stroke markers"/>
  <path d="m235 567-16-17" paint-order="fill stroke markers"/>
  <path d="m219 550-14-19" paint-order="fill stroke markers"/>
  <path d="m205 531-11-15" paint-order="fill stroke markers"/>
 </g>
</svg>
